<svg xmlns="http://www.w3.org/2000/svg" viewBox="0 0 20 20"><path fill="#fff" d="M9.999.001c-2.716 0-3.057.012-4.123.061C4.812.111 4.085.279 3.45.527a4.9 4.9 0 0 0-1.772 1.152A4.9 4.9 0 0 0 .524 3.452C.276 4.087.107 4.814.06 5.878.012 6.945 0 7.286 0 10.001s.012 3.056.061 4.122c.049 1.064.218 1.791.465 2.427a4.9 4.9 0 0 0 1.154 1.771 4.9 4.9 0 0 0 1.77 1.154c.637.248 1.362.416 2.427.464 1.067.049 1.407.061 4.122.061s3.055-.012 4.123-.061c1.065-.049 1.792-.217 2.428-.464a4.9 4.9 0 0 0 1.77-1.154 4.9 4.9 0 0 0 1.154-1.771c.246-.636.414-1.364.465-2.427.047-1.067.061-1.407.061-4.123s-.012-3.056-.061-4.123c-.05-1.064-.219-1.791-.465-2.427a4.9 4.9 0 0 0-1.154-1.771A4.9 4.9 0 0 0 16.55.525c-.638-.248-1.365-.416-2.43-.464C13.053.012 12.715 0 9.998 0zm-.896 1.803H10c2.669 0 2.986.009 4.04.057.975.045 1.505.207 1.857.344.467.181.799.398 1.149.747.349.349.566.684.749 1.15.137.352.299.882.344 1.856.047 1.055.058 1.37.058 4.039s-.011 2.986-.058 4.039c-.045.975-.207 1.504-.344 1.856a3.1 3.1 0 0 1-.749 1.148 3.1 3.1 0 0 1-1.149.747c-.352.138-.882.301-1.857.344-1.054.047-1.371.058-4.04.058s-2.986-.011-4.04-.058c-.975-.045-1.505-.209-1.857-.345a3.1 3.1 0 0 1-1.15-.747 3.1 3.1 0 0 1-.749-1.15c-.137-.352-.299-.882-.344-1.856-.047-1.055-.057-1.37-.057-4.042s.009-2.985.057-4.038c.045-.975.207-1.504.344-1.856.181-.467.398-.8.749-1.15a3.1 3.1 0 0 1 1.149-.745c.352-.138.882-.301 1.857-.345.923-.043 1.28-.055 3.144-.057zm6.235 1.66a1.2 1.2 0 1 0 0 2.4 1.2 1.2 0 0 0 0-2.4M9.999 4.867a5.136 5.136 0 1 0 0 10.272 5.136 5.136 0 0 0 0-10.272m0 1.802a3.333 3.333 0 1 1 0 6.668 3.334 3.334 0 0 1 0-6.668"/></svg>