<svg xmlns="http://www.w3.org/2000/svg" viewBox="0 0 53 46"><path fill="#ffffff" d="M0,16.692v12.599h9.796L22,38.992v-32l-12.204,9.7H0zM25.889,12.251c-0.567,0.615-0.53,1.576,0.085,2.145c2.384,2.209,3.751,5.342,3.751,8.596c0,3.26-1.374,6.399-3.768,8.611c-0.614,0.568-0.654,1.529-0.087,2.145c0.299,0.325,0.706,0.49,1.114,0.49c0.368,0,0.736-0.133,1.027-0.401c3.014-2.785,4.744-6.737,4.744-10.844c0-4.097-1.722-8.043-4.724-10.825C27.417,11.598,26.458,11.634,25.889,12.251zM35.495,6.631c-0.621-0.563-1.577-0.515-2.139,0.106s-0.515,1.582,0.104,2.144c3.968,3.603,6.243,8.746,6.243,14.11c0,5.371-2.28,10.518-6.257,14.122c-0.62,0.562-0.668,1.522-0.107,2.144c0.299,0.331,0.711,0.5,1.123,0.5c0.363,0,0.727-0.129,1.016-0.392c4.61-4.178,7.254-10.147,7.254-16.374C42.732,16.773,40.094,10.809,35.495,6.631zM44.036,0.473c-0.577-0.609-1.535-0.633-2.142-0.056c-0.607,0.577-0.631,1.538-0.055,2.146c5.244,5.536,8.132,12.79,8.132,20.427c0,7.646-2.893,14.907-8.147,20.444c-0.577,0.607-0.553,1.568,0.053,2.146C42.171,45.861,42.545,46,42.921,46c0.4,0,0.8-0.158,1.097-0.472C49.811,39.424,53,31.42,53,22.991C53,14.572,49.816,6.575,44.036,0.473z"/></svg>