<svg xmlns="http://www.w3.org/2000/svg" viewBox="0 0 19 20"><path fill="#fff" d="M16.3 3.2C14.5 1.4 12.1.4 9.6.4 4.3.4 0 4.7 0 9.9c0 1.7.4 3.3 1.3 4.7l-1.3 5 5-1.3q2.1 1.2 4.5 1.2c5.2 0 9.5-4.3 9.5-9.5 0-2.6-.9-5-2.7-6.8M9.5 17.8c-1.4 0-2.8-.4-4-1.1l-.3-.2-3 .8.8-2.9-.2-.3q-1.2-1.95-1.2-4.2C1.6 5.6 5.2 2 9.5 2c2.1 0 4.1.8 5.6 2.3s2.3 3.5 2.3 5.6c0 4.4-3.5 7.9-7.9 7.9m4.4-5.9-1.6-.8c-.2-.1-.4-.1-.5.1-.2.2-.6.8-.8.9-.1.2-.3.2-.5.1s-1-.4-1.9-1.2c-.7-.6-1.2-1.4-1.3-1.6s0-.4.1-.5.2-.3.4-.4c.1-.1.2-.2.2-.4 0-.1 0-.3-.1-.4S7.4 6.4 7.2 6c-.2-.5-.4-.4-.6-.5h-.5q-.15 0-.6.3c-.2.2-.8.8-.8 2s.9 2.3 1 2.5 1.7 2.6 4.1 3.6c.6.2 1 .4 1.4.5.6.2 1.1.2 1.5.1.5-.1 1.4-.6 1.6-1.1.2-.6.2-1 .1-1.1-.1-.2-.3-.3-.5-.4"/></svg>