<svg xmlns="http://www.w3.org/2000/svg" viewBox="0 0 20 20"><path fill="#fff" d="M6.29 18c7.547 0 11.675-6.155 11.675-11.492q0-.262-.012-.522A8.3 8.3 0 0 0 20 3.895a8.3 8.3 0 0 1-2.356.636 4.06 4.06 0 0 0 1.804-2.234 8.3 8.3 0 0 1-2.605.98A4.13 4.13 0 0 0 13.847 2c-2.266 0-4.104 1.809-4.104 4.039q0 .476.106.921a11.7 11.7 0 0 1-8.457-4.22 4 4 0 0 0-.556 2.03 4.02 4.02 0 0 0 1.826 3.362 4.1 4.1 0 0 1-1.858-.505l-.001.051c0 1.956 1.415 3.589 3.292 3.96a4.2 4.2 0 0 1-1.853.069 4.1 4.1 0 0 0 3.833 2.805 8.32 8.32 0 0 1-5.096 1.729q-.497 0-.979-.056A11.75 11.75 0 0 0 6.29 18"/></svg>